<svg viewBox="0 0 400 260" xmlns="http://www.w3.org/2000/svg" font-family="system-ui,sans-serif">
  <rect width="400" height="260" fill="#0e1117"/>
  <rect x="110" y="4" width="180" height="252" rx="20" fill="#1c1c2e" stroke="#2e2e4a" stroke-width="1.5"/>
  <text x="125" y="22" fill="#6b7280" font-size="8">9:41</text>
  <text x="268" y="22" fill="#6b7280" font-size="8">▐▐▐</text>
  <rect x="110" y="28" width="180" height="36" fill="#17173a"/>
  <text x="140" y="50" fill="#22c55e" font-size="16">🛒</text>
  <text x="210" y="44" text-anchor="middle" fill="#f1f5f9" font-size="11" font-weight="600">ShopBot</text>
  <text x="210" y="57" text-anchor="middle" fill="#22c55e" font-size="8">● онлайн</text>
  <rect x="118" y="72" width="76" height="72" rx="8" fill="#12122a" stroke="#2a2a4a" stroke-width="1"/>
  <rect x="118" y="72" width="76" height="36" rx="8" fill="#1a2a1a"/>
  <rect x="118" y="96" width="76" height="12" fill="#1a2a1a"/>
  <text x="156" y="94" text-anchor="middle" font-size="18">👟</text>
  <text x="156" y="116" text-anchor="middle" fill="#f1f5f9" font-size="8" font-weight="600">Кроссовки</text>
  <text x="156" y="127" text-anchor="middle" fill="#22c55e" font-size="9" font-weight="700">2 490 ₽</text>
  <text x="156" y="138" text-anchor="middle" fill="#6b7280" font-size="7">★ 4.8</text>
  <rect x="204" y="72" width="76" height="72" rx="8" fill="#12122a" stroke="#2a2a4a" stroke-width="1"/>
  <rect x="204" y="72" width="76" height="36" rx="8" fill="#1a1a2a"/>
  <rect x="204" y="96" width="76" height="12" fill="#1a1a2a"/>
  <text x="242" y="94" text-anchor="middle" font-size="18">🎒</text>
  <text x="242" y="116" text-anchor="middle" fill="#f1f5f9" font-size="8" font-weight="600">Рюкзак</text>
  <text x="242" y="127" text-anchor="middle" fill="#22c55e" font-size="9" font-weight="700">3 890 ₽</text>
  <text x="242" y="138" text-anchor="middle" fill="#6b7280" font-size="7">★ 4.6</text>
  <rect x="118" y="152" width="76" height="72" rx="8" fill="#12122a" stroke="#2a2a4a" stroke-width="1"/>
  <rect x="118" y="152" width="76" height="36" rx="8" fill="#1a1520"/>
  <rect x="118" y="176" width="76" height="12" fill="#1a1520"/>
  <text x="156" y="174" text-anchor="middle" font-size="18">⌚</text>
  <text x="156" y="196" text-anchor="middle" fill="#f1f5f9" font-size="8" font-weight="600">Часы</text>
  <text x="156" y="207" text-anchor="middle" fill="#22c55e" font-size="9" font-weight="700">7 200 ₽</text>
  <text x="156" y="218" text-anchor="middle" fill="#6b7280" font-size="7">★ 5.0</text>
  <rect x="204" y="152" width="76" height="72" rx="8" fill="#12122a" stroke="#2a2a4a" stroke-width="1"/>
  <rect x="204" y="152" width="76" height="36" rx="8" fill="#151a1a"/>
  <rect x="204" y="176" width="76" height="12" fill="#151a1a"/>
  <text x="242" y="174" text-anchor="middle" font-size="18">🕶️</text>
  <text x="242" y="196" text-anchor="middle" fill="#f1f5f9" font-size="8" font-weight="600">Очки</text>
  <text x="242" y="207" text-anchor="middle" fill="#22c55e" font-size="9" font-weight="700">1 150 ₽</text>
  <text x="242" y="218" text-anchor="middle" fill="#6b7280" font-size="7">★ 4.7</text>
  <rect x="118" y="232" width="162" height="18" rx="9" fill="#22c55e"/>
  <text x="199" y="244" text-anchor="middle" fill="#fff" font-size="9" font-weight="700">🛒 Корзина · 2 товара</text>
</svg>
