<svg viewBox="0 0 400 260" xmlns="http://www.w3.org/2000/svg" font-family="system-ui,sans-serif">
  <rect width="400" height="260" fill="#0f0a1e"/>
  <rect x="110" y="4" width="180" height="252" rx="20" fill="#1a1030" stroke="#3a2a60" stroke-width="1.5"/>
  <text x="125" y="22" fill="#6b7280" font-size="8">9:41</text>
  <rect x="110" y="28" width="180" height="36" fill="#221540"/>
  <text x="140" y="50" fill="#a78bfa" font-size="16">🤖</text>
  <text x="210" y="44" text-anchor="middle" fill="#f1f5f9" font-size="11" font-weight="600">SupportBot</text>
  <text x="210" y="57" text-anchor="middle" fill="#a78bfa" font-size="8">● на связи 24/7</text>
  <!-- Chat bubble incoming -->
  <rect x="118" y="72" width="130" height="30" rx="12" fill="#2d1f50"/>
  <text x="183" y="91" text-anchor="middle" fill="#e2e8f0" font-size="9">Здравствуйте! Чем помочь?</text>
  <!-- Menu buttons -->
  <rect x="118" y="110" width="162" height="22" rx="8" fill="#3730a3"/>
  <text x="199" y="125" text-anchor="middle" fill="#c4b5fd" font-size="9">📋 Статус заказа</text>
  <rect x="118" y="138" width="162" height="22" rx="8" fill="#1e1b4b"/>
  <text x="199" y="153" text-anchor="middle" fill="#a78bfa" font-size="9">❓ Частые вопросы</text>
  <rect x="118" y="166" width="162" height="22" rx="8" fill="#1e1b4b"/>
  <text x="199" y="181" text-anchor="middle" fill="#a78bfa" font-size="9">👤 Связаться с менеджером</text>
  <rect x="118" y="194" width="162" height="22" rx="8" fill="#1e1b4b"/>
  <text x="199" y="209" text-anchor="middle" fill="#a78bfa" font-size="9">🔄 Возврат / обмен</text>
  <!-- Chat bubble outgoing -->
  <rect x="148" y="222" width="112" height="22" rx="10" fill="#4c1d95"/>
  <text x="204" y="237" text-anchor="middle" fill="#fff" font-size="9">Статус заказа #4821</text>
</svg>
