<svg viewBox="0 0 400 260" xmlns="http://www.w3.org/2000/svg" font-family="system-ui,sans-serif">
  <rect width="400" height="260" fill="#0d0d1a"/>
  <rect x="55" y="8" width="290" height="244" rx="22" fill="#1a1a2e" stroke="#2a2a50" stroke-width="2"/>
  <rect x="55" y="8" width="290" height="52" rx="22" fill="#3558c8"/>
  <rect x="55" y="36" width="290" height="24" fill="#3558c8"/>
  <circle cx="94" cy="34" r="16" fill="#5070e8"/>
  <text x="94" y="39" text-anchor="middle" fill="white" font-size="14">📢</text>
  <text x="120" y="30" fill="white" font-size="12" font-weight="600">NewsletterBot</text>
  <text x="120" y="44" fill="#b8ccff" font-size="10">Панель управления</text>
  <!-- Stats row -->
  <rect x="68" y="70" width="80" height="62" rx="10" fill="#1e203c" stroke="#2e3060" stroke-width="1"/>
  <text x="108" y="96" text-anchor="middle" fill="#6080f8" font-size="18" font-weight="700">1 247</text>
  <text x="108" y="110" text-anchor="middle" fill="#8898cc" font-size="10">подписчиков</text>
  <rect x="158" y="70" width="80" height="62" rx="10" fill="#1e203c" stroke="#2e3060" stroke-width="1"/>
  <text x="198" y="96" text-anchor="middle" fill="#22c55e" font-size="18" font-weight="700">89%</text>
  <text x="198" y="110" text-anchor="middle" fill="#8898cc" font-size="10">открываемость</text>
  <rect x="248" y="70" width="80" height="62" rx="10" fill="#1e203c" stroke="#2e3060" stroke-width="1"/>
  <text x="288" y="96" text-anchor="middle" fill="#f59e0b" font-size="18" font-weight="700">42</text>
  <text x="288" y="110" text-anchor="middle" fill="#8898cc" font-size="10">рассылки</text>
  <!-- Last broadcast -->
  <rect x="68" y="143" width="260" height="55" rx="10" fill="#14162e" stroke="#2e3060" stroke-width="1"/>
  <text x="84" y="162" fill="#8898cc" font-size="10">Последняя рассылка</text>
  <text x="84" y="177" fill="white" font-size="11" font-weight="500">🎉 Акция — скидка 20% на всё</text>
  <text x="84" y="190" fill="#6080f8" font-size="10">✓ 1 081 доставлено · 4 часа назад</text>
  <!-- Send button -->
  <rect x="68" y="208" width="260" height="36" rx="10" fill="#4169E1"/>
  <text x="198" y="231" text-anchor="middle" fill="white" font-size="12" font-weight="600">✉  Новая рассылка</text>
</svg>
