<svg viewBox="0 0 400 260" xmlns="http://www.w3.org/2000/svg" font-family="system-ui,sans-serif">
  <defs>
    <linearGradient id="sky" x1="0%" y1="0%" x2="0%" y2="100%">
      <stop offset="0%" stop-color="#020617"/>
      <stop offset="100%" stop-color="#0f0a2e"/>
    </linearGradient>
  </defs>
  <rect width="400" height="260" fill="url(#sky)"/>
  <rect x="110" y="4" width="180" height="252" rx="20" fill="#070718" stroke="#1a1060" stroke-width="1.5"/>
  <!-- Status -->
  <text x="125" y="22" fill="#475569" font-size="8">9:41</text>
  <!-- Game header -->
  <rect x="110" y="28" width="180" height="36" fill="#0e0a30"/>
  <text x="200" y="50" text-anchor="middle" fill="#f59e0b" font-size="12" font-weight="700">⚡ CryptoRun</text>
  <!-- Game canvas -->
  <rect x="118" y="68" width="164" height="70" rx="8" fill="#04020f" stroke="#1a1060" stroke-width="1"/>
  <!-- Neon floor -->
  <line x1="118" y1="124" x2="282" y2="124" stroke="#4f46e5" stroke-width="2" opacity=".6"/>
  <!-- Obstacles -->
  <rect x="240" y="110" width="12" height="14" rx="2" fill="#ef4444"/>
  <rect x="260" y="106" width="8" height="18" rx="2" fill="#ef4444" opacity=".7"/>
  <!-- Runner -->
  <circle cx="155" cy="114" r="9" fill="#4f46e5"/>
  <text x="155" y="119" text-anchor="middle" fill="#fff" font-size="10">🏃</text>
  <!-- Score display -->
  <text x="200" y="84" text-anchor="middle" fill="#f59e0b" font-size="14" font-weight="700">24 680</text>
  <text x="200" y="96" text-anchor="middle" fill="#6b7280" font-size="8">очков</text>
  <!-- Stars -->
  <text x="200" y="112" text-anchor="middle" fill="#f59e0b" font-size="10">★★★★☆  ×84</text>
  <!-- Leaderboard -->
  <text x="118" y="152" fill="#94a3b8" font-size="9" font-weight="600">🏆 Топ игроков</text>
  <rect x="118" y="158" width="164" height="22" rx="6" fill="#f59e0b" opacity=".15"/>
  <text x="130" y="173" fill="#f59e0b" font-size="10" font-weight="700">1</text>
  <text x="146" y="173" fill="#fff" font-size="9">CryptoKing</text>
  <text x="274" y="173" text-anchor="end" fill="#f59e0b" font-size="9" font-weight="700">148 920</text>
  <rect x="118" y="184" width="164" height="20" rx="6" fill="#0e0a30"/>
  <text x="130" y="198" fill="#6b7280" font-size="10">2</text>
  <text x="146" y="198" fill="#e2e8f0" font-size="9">NightOwl99</text>
  <text x="274" y="198" text-anchor="end" fill="#6b7280" font-size="9">87 440</text>
  <rect x="118" y="208" width="164" height="20" rx="6" fill="#0e0a30"/>
  <text x="130" y="222" fill="#6b7280" font-size="10">3</text>
  <text x="146" y="222" fill="#e2e8f0" font-size="9">SpeedRunner</text>
  <text x="274" y="222" text-anchor="end" fill="#6b7280" font-size="9">62 180</text>
  <!-- Buy stars button -->
  <rect x="118" y="234" width="164" height="16" rx="8" fill="#4f46e5" opacity=".5"/>
  <text x="200" y="246" text-anchor="middle" fill="#c7d2fe" font-size="8">✦ Купить Stars</text>
</svg>
