<svg viewBox="0 0 400 260" xmlns="http://www.w3.org/2000/svg" font-family="system-ui,sans-serif">
  <rect width="400" height="260" fill="#011c11"/>
  <rect x="110" y="4" width="180" height="252" rx="20" fill="#041f12" stroke="#064e2e" stroke-width="1.5"/>
  <!-- Header -->
  <rect x="110" y="28" width="180" height="36" fill="#052e1a"/>
  <text x="150" y="36" fill="#6b7280" font-size="7">◀ назад</text>
  <text x="200" y="50" text-anchor="middle" fill="#10b981" font-size="11" font-weight="700">🛍 GreenShop</text>
  <!-- Search bar -->
  <rect x="118" y="72" width="162" height="22" rx="11" fill="#052e1a" stroke="#064e2e" stroke-width="1"/>
  <text x="199" y="87" text-anchor="middle" fill="#6b7280" font-size="9">🔍 Найти товар...</text>
  <!-- Category tabs -->
  <rect x="118" y="102" width="50" height="16" rx="8" fill="#059669"/>
  <text x="143" y="114" text-anchor="middle" fill="#fff" font-size="7" font-weight="600">Все</text>
  <rect x="174" y="102" width="50" height="16" rx="8" fill="#052e1a"/>
  <text x="199" y="114" text-anchor="middle" fill="#6b7280" font-size="7">Косметика</text>
  <rect x="230" y="102" width="50" height="16" rx="8" fill="#052e1a"/>
  <text x="255" y="114" text-anchor="middle" fill="#6b7280" font-size="7">Уход</text>
  <!-- Products 2x2 -->
  <rect x="118" y="126" width="74" height="56" rx="10" fill="#052e1a" stroke="#064e2e" stroke-width="1"/>
  <text x="155" y="150" text-anchor="middle" font-size="20">🌿</text>
  <text x="155" y="163" text-anchor="middle" fill="#f1f5f9" font-size="7">Сыворотка</text>
  <text x="155" y="174" text-anchor="middle" fill="#10b981" font-size="8" font-weight="700">890 ₽</text>
  <rect x="200" y="126" width="74" height="56" rx="10" fill="#052e1a" stroke="#064e2e" stroke-width="1"/>
  <text x="237" y="150" text-anchor="middle" font-size="20">🧴</text>
  <text x="237" y="163" text-anchor="middle" fill="#f1f5f9" font-size="7">Крем</text>
  <text x="237" y="174" text-anchor="middle" fill="#10b981" font-size="8" font-weight="700">1 290 ₽</text>
  <rect x="118" y="190" width="74" height="56" rx="10" fill="#052e1a" stroke="#064e2e" stroke-width="1"/>
  <text x="155" y="214" text-anchor="middle" font-size="20">🌸</text>
  <text x="155" y="227" text-anchor="middle" fill="#f1f5f9" font-size="7">Масло</text>
  <text x="155" y="238" text-anchor="middle" fill="#10b981" font-size="8" font-weight="700">650 ₽</text>
  <rect x="200" y="190" width="74" height="56" rx="10" fill="#052e1a" stroke="#064e2e" stroke-width="1"/>
  <text x="237" y="214" text-anchor="middle" font-size="20">🧪</text>
  <text x="237" y="227" text-anchor="middle" fill="#f1f5f9" font-size="7">Тоник</text>
  <text x="237" y="238" text-anchor="middle" fill="#10b981" font-size="8" font-weight="700">490 ₽</text>
</svg>
