<svg viewBox="0 0 400 260" xmlns="http://www.w3.org/2000/svg" font-family="system-ui,sans-serif">
  <rect width="400" height="260" fill="#0d0d1a"/>
  <rect x="55" y="8" width="290" height="244" rx="22" fill="#1a1a2e" stroke="#2a2a50" stroke-width="2"/>
  <rect x="55" y="8" width="290" height="42" rx="22" fill="#1a1a2e"/>
  <rect x="55" y="30" width="290" height="20" fill="#1a1a2e"/>
  <text x="200" y="34" text-anchor="middle" fill="#8898cc" font-size="10">◀  Запись на приём</text>
  <line x1="55" y1="50" x2="345" y2="50" stroke="#2a2a50" stroke-width="1"/>
  <!-- Month header -->
  <text x="200" y="72" text-anchor="middle" fill="white" font-size="13" font-weight="600">◀  Апрель 2024  ▶</text>
  <!-- Calendar grid -->
  <!-- Day headers -->
  <text x="86" y="92" text-anchor="middle" fill="#5a6a9a" font-size="9">Пн</text>
  <text x="124" y="92" text-anchor="middle" fill="#5a6a9a" font-size="9">Вт</text>
  <text x="162" y="92" text-anchor="middle" fill="#5a6a9a" font-size="9">Ср</text>
  <text x="200" y="92" text-anchor="middle" fill="#5a6a9a" font-size="9">Чт</text>
  <text x="238" y="92" text-anchor="middle" fill="#5a6a9a" font-size="9">Пт</text>
  <text x="276" y="92" text-anchor="middle" fill="#5a6a9a" font-size="9">Сб</text>
  <text x="314" y="92" text-anchor="middle" fill="#5a6a9a" font-size="9">Вс</text>
  <!-- Row 1: 1-7 -->
  <text x="86" y="108" text-anchor="middle" fill="#8898cc" font-size="11">1</text>
  <text x="124" y="108" text-anchor="middle" fill="#8898cc" font-size="11">2</text>
  <text x="162" y="108" text-anchor="middle" fill="#8898cc" font-size="11">3</text>
  <text x="200" y="108" text-anchor="middle" fill="#8898cc" font-size="11">4</text>
  <text x="238" y="108" text-anchor="middle" fill="#8898cc" font-size="11">5</text>
  <text x="276" y="108" text-anchor="middle" fill="#6a7a9a" font-size="11">6</text>
  <text x="314" y="108" text-anchor="middle" fill="#6a7a9a" font-size="11">7</text>
  <!-- Row 2: 8-14 -->
  <text x="86" y="125" text-anchor="middle" fill="#8898cc" font-size="11">8</text>
  <text x="124" y="125" text-anchor="middle" fill="#8898cc" font-size="11">9</text>
  <text x="162" y="125" text-anchor="middle" fill="#8898cc" font-size="11">10</text>
  <text x="200" y="125" text-anchor="middle" fill="#8898cc" font-size="11">11</text>
  <!-- 12 selected -->
  <circle cx="238" cy="120" r="12" fill="#4169E1"/>
  <text x="238" y="125" text-anchor="middle" fill="white" font-size="11" font-weight="700">12</text>
  <text x="276" y="125" text-anchor="middle" fill="#6a7a9a" font-size="11">13</text>
  <text x="314" y="125" text-anchor="middle" fill="#6a7a9a" font-size="11">14</text>
  <!-- Row 3: 15-21 -->
  <text x="86" y="142" text-anchor="middle" fill="#8898cc" font-size="11">15</text>
  <text x="124" y="142" text-anchor="middle" fill="#8898cc" font-size="11">16</text>
  <text x="162" y="142" text-anchor="middle" fill="#8898cc" font-size="11">17</text>
  <text x="200" y="142" text-anchor="middle" fill="#8898cc" font-size="11">18</text>
  <text x="238" y="142" text-anchor="middle" fill="#8898cc" font-size="11">19</text>
  <!-- Time slots -->
  <text x="68" y="162" fill="#8898cc" font-size="10">Выберите время — 12 апреля:</text>
  <rect x="68" y="170" width="52" height="22" rx="6" fill="#1e2a5a" stroke="#4169E1" stroke-width="1"/>
  <text x="94" y="185" text-anchor="middle" fill="#91b4ff" font-size="10">10:00</text>
  <rect x="126" y="170" width="52" height="22" rx="6" fill="#4169E1"/>
  <text x="152" y="185" text-anchor="middle" fill="white" font-size="10" font-weight="600">11:00</text>
  <rect x="184" y="170" width="52" height="22" rx="6" fill="#1e2a5a" stroke="#4169E1" stroke-width="1"/>
  <text x="210" y="185" text-anchor="middle" fill="#91b4ff" font-size="10">14:00</text>
  <rect x="242" y="170" width="52" height="22" rx="6" fill="#1a1a3a" stroke="#2a2a50" stroke-width="1"/>
  <text x="268" y="185" text-anchor="middle" fill="#3a4a6a" font-size="10">16:00</text>
  <!-- Book button -->
  <rect x="68" y="202" width="260" height="36" rx="10" fill="#4169E1"/>
  <text x="198" y="225" text-anchor="middle" fill="white" font-size="12" font-weight="600">Записаться · 11:00</text>
</svg>
