<svg viewBox="0 0 800 500" xmlns="http://www.w3.org/2000/svg" font-family="system-ui,-apple-system,sans-serif">
  <!-- TWA / Mini App full screen -->
  <rect width="800" height="500" fill="#0d1f13"/>
  <!-- Top bar (Telegram TWA bar) -->
  <rect width="800" height="52" fill="#0a1a10"/>
  <rect width="800" height="1" y="52" fill="rgba(255,255,255,0.06)"/>
  <text x="400" y="30" text-anchor="middle" fill="white" font-size="15" font-weight="600">GreenShop</text>
  <text x="20" y="30" fill="#4ade80" font-size="13">←</text>
  <text x="760" y="30" fill="#4ade80" font-size="13">⋮</text>

  <!-- Search bar -->
  <rect x="16" y="64" width="600" height="38" rx="19" fill="#162a1c" stroke="rgba(74,222,128,0.2)" stroke-width="1"/>
  <text x="44" y="88" fill="#4ade80" font-size="14">🔍</text>
  <text x="70" y="88" fill="#4d7a5a" font-size="13">Найти товар...</text>
  <rect x="630" y="64" width="150" height="38" rx="10" fill="#1c9e68"/>
  <text x="705" y="88" text-anchor="middle" fill="white" font-size="13" font-weight="600">Корзина · 3</text>

  <!-- Category tabs -->
  <rect x="16" y="115" width="110" height="32" rx="16" fill="#1c9e68"/>
  <text x="71" y="136" text-anchor="middle" fill="white" font-size="12" font-weight="600">Все</text>
  <rect x="138" y="115" width="110" height="32" rx="16" fill="#162a1c" stroke="rgba(255,255,255,0.1)" stroke-width="1"/>
  <text x="193" y="136" text-anchor="middle" fill="#9ca3af" font-size="12">Уход</text>
  <rect x="260" y="115" width="110" height="32" rx="16" fill="#162a1c" stroke="rgba(255,255,255,0.1)" stroke-width="1"/>
  <text x="315" y="136" text-anchor="middle" fill="#9ca3af" font-size="12">Питание</text>
  <rect x="382" y="115" width="110" height="32" rx="16" fill="#162a1c" stroke="rgba(255,255,255,0.1)" stroke-width="1"/>
  <text x="437" y="136" text-anchor="middle" fill="#9ca3af" font-size="12">Supplements</text>

  <!-- Product grid 2x2 -->
  <!-- Card 1 -->
  <rect x="16" y="162" width="186" height="150" rx="12" fill="#162a1c"/>
  <rect x="16" y="162" width="186" height="90" rx="12" fill="#1a3d22"/>
  <rect x="16" y="220" width="186" height="32" fill="#1a3d22"/>
  <rect x="22" y="168" width="174" height="84" rx="8" fill="#1f5030"/>
  <text x="109" y="218" text-anchor="middle" fill="rgba(255,255,255,0.5)" font-size="32">🌿</text>
  <text x="109" y="218" text-anchor="middle" fill="white" font-size="11" font-weight="600">Алоэ гель</text>
  <text x="30" y="270" fill="white" font-size="11" font-weight="600">Алоэ-гель очищ.</text>
  <text x="30" y="287" fill="#4ade80" font-size="13" font-weight="700">890 ₽</text>
  <rect x="160" y="295" width="32" height="12" rx="6" fill="#1c9e68"/>
  <text x="176" y="305" text-anchor="middle" fill="white" font-size="9">+</text>

  <!-- Card 2 -->
  <rect x="214" y="162" width="186" height="150" rx="12" fill="#162a1c"/>
  <rect x="214" y="162" width="186" height="90" rx="12" fill="#1a2d3a"/>
  <rect x="214" y="220" width="186" height="32" fill="#1a2d3a"/>
  <rect x="220" y="168" width="174" height="84" rx="8" fill="#1f3f52"/>
  <text x="307" y="218" text-anchor="middle" fill="white" font-size="11" font-weight="600">Крем увлаж.</text>
  <text x="228" y="270" fill="white" font-size="11" font-weight="600">Крем для лица</text>
  <text x="228" y="287" fill="#4ade80" font-size="13" font-weight="700">1 290 ₽</text>
  <rect x="358" y="295" width="32" height="12" rx="6" fill="#1c9e68"/>
  <text x="374" y="305" text-anchor="middle" fill="white" font-size="9">+</text>

  <!-- Card 3 -->
  <rect x="16" y="324" width="186" height="150" rx="12" fill="#162a1c"/>
  <rect x="16" y="324" width="186" height="90" rx="12" fill="#2a1a2a"/>
  <rect x="16" y="382" width="186" height="32" fill="#2a1a2a"/>
  <rect x="22" y="330" width="174" height="84" rx="8" fill="#3d1f4a"/>
  <text x="109" y="380" text-anchor="middle" fill="white" font-size="11" font-weight="600">Масло розы</text>
  <text x="30" y="432" fill="white" font-size="11" font-weight="600">Масло для тела</text>
  <text x="30" y="449" fill="#4ade80" font-size="13" font-weight="700">650 ₽</text>
  <rect x="160" y="457" width="32" height="12" rx="6" fill="#1c9e68"/>
  <text x="176" y="467" text-anchor="middle" fill="white" font-size="9">+</text>

  <!-- Card 4 -->
  <rect x="214" y="324" width="186" height="150" rx="12" fill="#162a1c"/>
  <rect x="214" y="324" width="186" height="90" rx="12" fill="#1a251a"/>
  <rect x="214" y="382" width="186" height="32" fill="#1a251a"/>
  <rect x="220" y="330" width="174" height="84" rx="8" fill="#1f3d1f"/>
  <text x="307" y="380" text-anchor="middle" fill="white" font-size="11" font-weight="600">Сыворотка C</text>
  <text x="228" y="432" fill="white" font-size="11" font-weight="600">Сыворотка вит.C</text>
  <text x="228" y="449" fill="#4ade80" font-size="13" font-weight="700">490 ₽</text>
  <rect x="358" y="457" width="32" height="12" rx="6" fill="#1c9e68"/>
  <text x="374" y="467" text-anchor="middle" fill="white" font-size="9">+</text>

  <!-- Right panel promo banner -->
  <rect x="418" y="162" width="366" height="312" rx="16" fill="#0f2a1a" stroke="rgba(74,222,128,0.15)" stroke-width="1"/>
  <rect x="418" y="162" width="366" height="120" rx="16" fill="#1a5c30"/>
  <text x="601" y="206" text-anchor="middle" fill="white" font-size="22" font-weight="800">-15%</text>
  <text x="601" y="230" text-anchor="middle" fill="rgba(255,255,255,0.8)" font-size="13">на первый заказ</text>
  <text x="601" y="250" text-anchor="middle" fill="rgba(255,255,255,0.6)" font-size="11">по коду FIRST15</text>
  <!-- Bestsellers list -->
  <text x="438" y="304" fill="white" font-size="13" font-weight="600">Хиты продаж</text>
  <rect x="430" y="312" width="340" height="36" rx="8" fill="#162a1c"/>
  <text x="446" y="335" fill="white" font-size="12">🌿  Алоэ-гель</text>
  <text x="756" y="335" text-anchor="end" fill="#4ade80" font-size="12" font-weight="600">890 ₽</text>
  <rect x="430" y="354" width="340" height="36" rx="8" fill="#162a1c"/>
  <text x="446" y="377" fill="white" font-size="12">💚  Крем для лица</text>
  <text x="756" y="377" text-anchor="end" fill="#4ade80" font-size="12" font-weight="600">1 290 ₽</text>
  <rect x="430" y="396" width="340" height="36" rx="8" fill="#162a1c"/>
  <text x="446" y="419" fill="white" font-size="12">🌸  Масло для тела</text>
  <text x="756" y="419" text-anchor="end" fill="#4ade80" font-size="12" font-weight="600">650 ₽</text>
  <!-- Cart total -->
  <rect x="430" y="450" width="340" height="16" rx="3" fill="#1c9e68"/>
  <text x="601" y="463" text-anchor="middle" fill="white" font-size="11" font-weight="600">Оформить заказ · 3 товара · 2 430 ₽</text>
</svg>
