<svg viewBox="0 0 400 260" xmlns="http://www.w3.org/2000/svg" font-family="system-ui,sans-serif">
  <rect width="400" height="260" fill="#0d0d1a"/>
  <rect x="55" y="8" width="290" height="244" rx="22" fill="#1a1a2e" stroke="#2a2a50" stroke-width="2"/>
  <rect x="55" y="8" width="290" height="42" rx="22" fill="#1a1a2e"/>
  <rect x="55" y="30" width="290" height="20" fill="#1a1a2e"/>
  <text x="200" y="34" text-anchor="middle" fill="#8898cc" font-size="10">◀  CryptoRun</text>
  <line x1="55" y1="50" x2="345" y2="50" stroke="#2a2a50" stroke-width="1"/>
  <!-- Game area -->
  <rect x="68" y="58" width="260" height="80" rx="10" fill="#0a0a20" stroke="#2a2a4a" stroke-width="1"/>
  <!-- Stars bg -->
  <circle cx="90" cy="70" r="1" fill="white" opacity=".5"/>
  <circle cx="150" cy="78" r="1.5" fill="white" opacity=".6"/>
  <circle cx="220" cy="65" r="1" fill="white" opacity=".4"/>
  <circle cx="290" cy="75" r="1" fill="white" opacity=".5"/>
  <circle cx="310" cy="92" r="1" fill="white" opacity=".3"/>
  <!-- Runner (simple pixel art vibe) -->
  <circle cx="140" cy="108" r="10" fill="#4169E1"/>
  <text x="140" y="113" text-anchor="middle" fill="white" font-size="12">🏃</text>
  <!-- Score -->
  <text x="200" y="82" text-anchor="middle" fill="#f59e0b" font-size="18" font-weight="700">24 680</text>
  <text x="200" y="96" text-anchor="middle" fill="#8898cc" font-size="10">очков · уровень 7</text>
  <!-- Stars bar -->
  <text x="200" y="124" text-anchor="middle" fill="#f59e0b" font-size="12">★★★★☆  ×  84</text>
  <!-- Leaderboard -->
  <text x="68" y="150" fill="#8898cc" font-size="10">🏆  Таблица лидеров</text>
  <rect x="68" y="156" width="260" height="26" rx="6" fill="#f59e0b" opacity=".15"/>
  <text x="84" y="173" fill="#f59e0b" font-size="11" font-weight="700">1</text>
  <text x="100" y="173" fill="white" font-size="11">CryptoKing</text>
  <text x="310" y="173" text-anchor="end" fill="#f59e0b" font-size="11" font-weight="700">148 920</text>
  <rect x="68" y="186" width="260" height="22" rx="6" fill="#1e203c"/>
  <text x="84" y="201" fill="#8898cc" font-size="11">2</text>
  <text x="100" y="201" fill="white" font-size="11">NightOwl99</text>
  <text x="310" y="201" text-anchor="end" fill="#8898cc" font-size="11">87 440</text>
  <rect x="68" y="212" width="260" height="22" rx="6" fill="#1e203c"/>
  <text x="84" y="227" fill="#8898cc" font-size="11">3</text>
  <text x="100" y="227" fill="white" font-size="11">SpeedRunner</text>
  <text x="310" y="227" text-anchor="end" fill="#8898cc" font-size="11">62 180</text>
  <!-- Stars buy button -->
  <rect x="68" y="238" width="260" height="6" rx="3" fill="#4169E1" opacity=".4"/>
</svg>
