<svg viewBox="0 0 400 260" xmlns="http://www.w3.org/2000/svg" font-family="system-ui,sans-serif">
  <rect width="400" height="260" fill="#0a0e1f"/>
  <rect x="110" y="4" width="180" height="252" rx="20" fill="#0d1130" stroke="#1e2a6e" stroke-width="1.5"/>
  <!-- Header -->
  <rect x="110" y="28" width="180" height="36" fill="#111840"/>
  <text x="200" y="44" text-anchor="middle" fill="#f1f5f9" font-size="11" font-weight="600">📅 Запись</text>
  <text x="200" y="57" text-anchor="middle" fill="#6366f1" font-size="8">Йога-студия Zen</text>
  <!-- Month nav -->
  <text x="140" y="80" fill="#6366f1" font-size="12">‹</text>
  <text x="200" y="80" text-anchor="middle" fill="#f1f5f9" font-size="10" font-weight="600">Апрель 2025</text>
  <text x="260" y="80" fill="#6366f1" font-size="12">›</text>
  <!-- Calendar grid header -->
  <text x="127" y="95" fill="#6b7280" font-size="8">Пн</text>
  <text x="150" y="95" fill="#6b7280" font-size="8">Вт</text>
  <text x="173" y="95" fill="#6b7280" font-size="8">Ср</text>
  <text x="196" y="95" fill="#6b7280" font-size="8">Чт</text>
  <text x="219" y="95" fill="#6b7280" font-size="8">Пт</text>
  <text x="242" y="95" fill="#6b7280" font-size="8">Сб</text>
  <text x="265" y="95" fill="#6b7280" font-size="8">Вс</text>
  <!-- Calendar week 1 -->
  <text x="127" y="112" fill="#6b7280" font-size="9">1</text>
  <text x="150" y="112" fill="#6b7280" font-size="9">2</text>
  <text x="173" y="112" fill="#6b7280" font-size="9">3</text>
  <circle cx="199" cy="108" r="9" fill="#6366f1"/>
  <text x="199" y="113" text-anchor="middle" fill="#fff" font-size="9">4</text>
  <text x="222" y="112" fill="#f1f5f9" font-size="9">5</text>
  <text x="245" y="112" fill="#f1f5f9" font-size="9">6</text>
  <text x="268" y="112" fill="#6b7280" font-size="9">7</text>
  <!-- Week 2 -->
  <text x="127" y="128" fill="#f1f5f9" font-size="9">8</text>
  <text x="150" y="128" fill="#f1f5f9" font-size="9">9</text>
  <text x="171" y="128" fill="#f1f5f9" font-size="9">10</text>
  <text x="194" y="128" fill="#f1f5f9" font-size="9">11</text>
  <text x="217" y="128" fill="#f1f5f9" font-size="9">12</text>
  <circle cx="245" cy="124" r="9" fill="#1e2a6e"/>
  <text x="245" y="129" text-anchor="middle" fill="#6366f1" font-size="9" font-weight="600">13</text>
  <text x="268" y="128" fill="#6b7280" font-size="9">14</text>
  <!-- Time slots -->
  <text x="118" y="150" fill="#94a3b8" font-size="9">Доступное время — 13 апреля</text>
  <rect x="118" y="156" width="46" height="18" rx="9" fill="#1e2a6e" stroke="#6366f1" stroke-width="1"/>
  <text x="141" y="169" text-anchor="middle" fill="#6366f1" font-size="8">09:00</text>
  <rect x="170" y="156" width="46" height="18" rx="9" fill="#6366f1"/>
  <text x="193" y="169" text-anchor="middle" fill="#fff" font-size="8" font-weight="600">10:30</text>
  <rect x="222" y="156" width="46" height="18" rx="9" fill="#1e2a6e" stroke="#6366f1" stroke-width="1"/>
  <text x="245" y="169" text-anchor="middle" fill="#6366f1" font-size="8">12:00</text>
  <rect x="118" y="180" width="46" height="18" rx="9" fill="#1e2a6e" stroke="#6366f1" stroke-width="1"/>
  <text x="141" y="193" text-anchor="middle" fill="#6366f1" font-size="8">14:00</text>
  <rect x="170" y="180" width="46" height="18" rx="9" fill="#111840" stroke="#334155" stroke-width="1"/>
  <text x="193" y="193" text-anchor="middle" fill="#475569" font-size="8">15:30</text>
  <rect x="222" y="180" width="46" height="18" rx="9" fill="#1e2a6e" stroke="#6366f1" stroke-width="1"/>
  <text x="245" y="193" text-anchor="middle" fill="#6366f1" font-size="8">17:00</text>
  <!-- Book button -->
  <rect x="118" y="210" width="162" height="24" rx="12" fill="#6366f1"/>
  <text x="199" y="226" text-anchor="middle" fill="#fff" font-size="10" font-weight="600">Записаться на 10:30</text>
</svg>
