<svg viewBox="0 0 400 260" xmlns="http://www.w3.org/2000/svg" font-family="system-ui,sans-serif">
  <rect width="400" height="260" fill="#0d0d1a"/>
  <!-- Browser chrome -->
  <rect x="20" y="10" width="360" height="240" rx="12" fill="#1a1a2e" stroke="#2a2a50" stroke-width="1.5"/>
  <rect x="20" y="10" width="360" height="32" rx="12" fill="#12122a"/>
  <rect x="20" y="30" width="360" height="12" fill="#12122a"/>
  <circle cx="40" cy="26" r="5" fill="#ff5f56"/>
  <circle cx="58" cy="26" r="5" fill="#ffbd2e"/>
  <circle cx="76" cy="26" r="5" fill="#27c93f"/>
  <rect x="100" y="18" width="200" height="16" rx="8" fill="#1e203c"/>
  <text x="200" y="30" text-anchor="middle" fill="#5a6a9a" font-size="9">studiocraft.ru</text>
  <!-- Nav -->
  <rect x="20" y="42" width="360" height="30" fill="#0f0f20"/>
  <text x="44" y="63" fill="#4169E1" font-size="13" font-weight="700">StudioCraft</text>
  <text x="230" y="63" fill="#8898cc" font-size="10">Услуги</text>
  <text x="270" y="63" fill="#8898cc" font-size="10">Работы</text>
  <text x="310" y="63" fill="#8898cc" font-size="10">Контакт</text>
  <!-- Hero -->
  <rect x="20" y="72" width="360" height="110" fill="url(#sg1)"/>
  <defs>
    <linearGradient id="sg1" x1="0" y1="0" x2="1" y2="1">
      <stop offset="0%" stop-color="#1a1a4a"/>
      <stop offset="100%" stop-color="#0d1a3a"/>
    </linearGradient>
  </defs>
  <text x="60" y="106" fill="white" font-size="19" font-weight="700">Создадим сайт,</text>
  <text x="60" y="128" fill="white" font-size="19" font-weight="700">который <tspan fill="#6080f8">продаёт</tspan></text>
  <text x="60" y="148" fill="#8898cc" font-size="11">Разработка под ключ — быстро и по делу</text>
  <rect x="60" y="158" width="130" height="30" rx="8" fill="#4169E1"/>
  <text x="125" y="178" text-anchor="middle" fill="white" font-size="11" font-weight="600">Получить оффер →</text>
  <!-- Stats bar -->
  <rect x="20" y="182" width="360" height="38" fill="#12122a"/>
  <text x="90" y="197" text-anchor="middle" fill="#6080f8" font-size="14" font-weight="700">120+</text>
  <text x="90" y="212" text-anchor="middle" fill="#8898cc" font-size="9">проектов</text>
  <text x="200" y="197" text-anchor="middle" fill="#6080f8" font-size="14" font-weight="700">4.9★</text>
  <text x="200" y="212" text-anchor="middle" fill="#8898cc" font-size="9">рейтинг</text>
  <text x="310" y="197" text-anchor="middle" fill="#6080f8" font-size="14" font-weight="700">3 дня</text>
  <text x="310" y="212" text-anchor="middle" fill="#8898cc" font-size="9">средний срок</text>
  <!-- Footer -->
  <rect x="20" y="220" width="360" height="30" rx="0" fill="#0a0a18"/>
  <rect x="20" y="238" width="360" height="12" rx="12" fill="#0a0a18"/>
  <text x="200" y="238" text-anchor="middle" fill="#3a3a6a" font-size="9">© 2024 StudioCraft · Сайты под ключ</text>
</svg>
