<svg viewBox="0 0 400 260" xmlns="http://www.w3.org/2000/svg" font-family="system-ui,sans-serif">
  <rect width="400" height="260" fill="#f8fafc"/>
  <!-- Browser -->
  <rect width="400" height="28" fill="#e8ecf0"/>
  <circle cx="16" cy="14" r="5" fill="#ff5f57"/>
  <circle cx="30" cy="14" r="5" fill="#febc2e"/>
  <circle cx="44" cy="14" r="5" fill="#28c840"/>
  <rect x="70" y="8" width="260" height="14" rx="7" fill="#d0d5dd"/>
  <text x="200" y="19" text-anchor="middle" fill="#888" font-size="8">techcorp.ru</text>
  <!-- Sidebar -->
  <rect x="0" y="28" width="90" height="232" fill="#0f172a"/>
  <text x="45" y="52" text-anchor="middle" fill="#38bdf8" font-size="10" font-weight="700">TechCorp</text>
  <line x1="12" y1="60" x2="78" y2="60" stroke="#1e293b" stroke-width="1"/>
  <rect x="8" y="68" width="74" height="20" rx="5" fill="#1e3a5f"/>
  <text x="45" y="82" text-anchor="middle" fill="#38bdf8" font-size="8">🏠 Главная</text>
  <text x="45" y="104" text-anchor="middle" fill="#94a3b8" font-size="8">⚙️ Услуги</text>
  <text x="45" y="124" text-anchor="middle" fill="#94a3b8" font-size="8">📂 Проекты</text>
  <text x="45" y="144" text-anchor="middle" fill="#94a3b8" font-size="8">✍️ Блог</text>
  <text x="45" y="164" text-anchor="middle" fill="#94a3b8" font-size="8">👥 Команда</text>
  <text x="45" y="184" text-anchor="middle" fill="#94a3b8" font-size="8">📞 Контакты</text>
  <!-- Main content -->
  <rect x="90" y="28" width="310" height="232" fill="#f8fafc"/>
  <!-- Top bar -->
  <rect x="90" y="28" width="310" height="36" fill="#fff" stroke="#e2e8f0" stroke-width="1"/>
  <text x="110" y="51" fill="#1e293b" font-size="11" font-weight="600">Добро пожаловать!</text>
  <rect x="340" y="35" width="48" height="20" rx="10" fill="#0ea5e9"/>
  <text x="364" y="49" text-anchor="middle" fill="#fff" font-size="8" font-weight="600">+ Создать</text>
  <!-- Service cards -->
  <rect x="100" y="75" width="88" height="70" rx="10" fill="#fff" stroke="#e2e8f0" stroke-width="1"/>
  <text x="144" y="100" text-anchor="middle" font-size="22">⚡</text>
  <text x="144" y="116" text-anchor="middle" fill="#0f172a" font-size="8" font-weight="600">Разработка</text>
  <text x="144" y="128" text-anchor="middle" fill="#94a3b8" font-size="7">12 проектов</text>
  <rect x="198" y="75" width="88" height="70" rx="10" fill="#fff" stroke="#e2e8f0" stroke-width="1"/>
  <text x="242" y="100" text-anchor="middle" font-size="22">🎯</text>
  <text x="242" y="116" text-anchor="middle" fill="#0f172a" font-size="8" font-weight="600">Маркетинг</text>
  <text x="242" y="128" text-anchor="middle" fill="#94a3b8" font-size="7">8 проектов</text>
  <rect x="296" y="75" width="88" height="70" rx="10" fill="#fff" stroke="#e2e8f0" stroke-width="1"/>
  <text x="340" y="100" text-anchor="middle" font-size="22">☁️</text>
  <text x="340" y="116" text-anchor="middle" fill="#0f172a" font-size="8" font-weight="600">Облако</text>
  <text x="340" y="128" text-anchor="middle" fill="#94a3b8" font-size="7">5 проектов</text>
  <!-- Blog preview -->
  <text x="100" y="163" fill="#64748b" font-size="9" font-weight="600">Последние статьи</text>
  <rect x="100" y="170" width="288" height="32" rx="7" fill="#fff" stroke="#e2e8f0" stroke-width="1"/>
  <text x="112" y="189" fill="#0f172a" font-size="9">Как мы автоматизировали 80% рутины за 2 месяца</text>
  <text x="376" y="189" text-anchor="end" fill="#94a3b8" font-size="7">14 апр</text>
  <rect x="100" y="208" width="288" height="32" rx="7" fill="#fff" stroke="#e2e8f0" stroke-width="1"/>
  <text x="112" y="227" fill="#0f172a" font-size="9">Запустили новый корпоративный портал</text>
  <text x="376" y="227" text-anchor="end" fill="#94a3b8" font-size="7">2 апр</text>
</svg>
