<svg viewBox="0 0 800 500" xmlns="http://www.w3.org/2000/svg" font-family="system-ui,-apple-system,sans-serif">
  <!-- Browser chrome -->
  <rect width="800" height="500" fill="#1e1e2e"/>
  <rect width="800" height="36" fill="#2a2a3e"/>
  <circle cx="20" cy="18" r="6" fill="#ff5f57"/>
  <circle cx="40" cy="18" r="6" fill="#febc2e"/>
  <circle cx="60" cy="18" r="6" fill="#28c840"/>
  <rect x="90" y="8" width="540" height="20" rx="10" fill="#1a1a2e"/>
  <text x="360" y="22" text-anchor="middle" fill="#8b8baa" font-size="11">techcorp.ru</text>
  <!-- Page layout: sidebar + content -->
  <!-- Sidebar -->
  <rect x="0" y="36" width="200" height="464" fill="#0f172a"/>
  <rect x="200" y="36" width="1" height="464" fill="rgba(255,255,255,0.06)"/>
  <!-- Sidebar logo -->
  <rect x="20" y="56" width="36" height="36" rx="8" fill="#3b82f6"/>
  <text x="38" y="79" text-anchor="middle" fill="white" font-size="16" font-weight="700">T</text>
  <text x="66" y="68" fill="white" font-size="14" font-weight="600">TechCorp</text>
  <text x="66" y="84" fill="#475569" font-size="10">Корпоративный</text>
  <!-- Nav -->
  <rect x="12" y="108" width="176" height="34" rx="8" fill="#1e3a5f"/>
  <text x="34" y="130" fill="#60a5fa" font-size="12" font-weight="500">🏠  Главная</text>
  <text x="34" y="162" fill="#64748b" font-size="12">🛠  Услуги</text>
  <text x="34" y="194" fill="#64748b" font-size="12">👥  О компании</text>
  <text x="34" y="226" fill="#64748b" font-size="12">📰  Блог</text>
  <text x="34" y="258" fill="#64748b" font-size="12">📞  Контакты</text>
  <!-- Main content -->
  <!-- Hero -->
  <rect x="200" y="36" width="600" height="464" fill="#f8fafc"/>
  <!-- Top nav -->
  <rect x="200" y="36" width="600" height="50" fill="white"/>
  <rect x="200" y="86" width="600" height="1" fill="#e2e8f0"/>
  <text x="520" y="67" text-anchor="middle" fill="#94a3b8" font-size="11">Новостей: 3  |  Задач: 12  |  Пользователь: admin</text>
  <!-- Main card -->
  <rect x="216" y="100" width="568" height="140" rx="12" fill="white" stroke="#e2e8f0" stroke-width="1"/>
  <rect x="216" y="100" width="568" height="4" rx="12" fill="#3b82f6"/>
  <text x="236" y="130" fill="#0f172a" font-size="15" font-weight="600">Добро пожаловать в панель управления</text>
  <text x="236" y="150" fill="#64748b" font-size="12">Управляйте содержимым сайта без технических знаний</text>
  <rect x="236" y="166" width="90" height="56" rx="8" fill="#f1f5f9"/>
  <text x="281" y="192" text-anchor="middle" fill="#3b82f6" font-size="18">📄</text>
  <text x="281" y="212" text-anchor="middle" fill="#475569" font-size="10">Страницы</text>
  <rect x="338" y="166" width="90" height="56" rx="8" fill="#f1f5f9"/>
  <text x="383" y="192" text-anchor="middle" fill="#3b82f6" font-size="18">📰</text>
  <text x="383" y="212" text-anchor="middle" fill="#475569" font-size="10">Блог</text>
  <rect x="440" y="166" width="90" height="56" rx="8" fill="#f1f5f9"/>
  <text x="485" y="192" text-anchor="middle" fill="#3b82f6" font-size="18">🖼</text>
  <text x="485" y="212" text-anchor="middle" fill="#475569" font-size="10">Медиа</text>
  <!-- Service cards -->
  <text x="230" y="268" fill="#0f172a" font-size="13" font-weight="600">Наши услуги</text>
  <rect x="216" y="278" width="174" height="100" rx="10" fill="white" stroke="#e2e8f0" stroke-width="1"/>
  <rect x="216" y="278" width="174" height="3" rx="10" fill="#3b82f6"/>
  <text x="228" y="304" fill="#0f172a" font-size="12" font-weight="600">Веб-разработка</text>
  <text x="228" y="322" fill="#64748b" font-size="11">Современные сайты</text>
  <text x="228" y="338" fill="#64748b" font-size="11">и веб-приложения</text>
  <text x="228" y="368" fill="#3b82f6" font-size="11" font-weight="500">Подробнее →</text>
  <rect x="402" y="278" width="174" height="100" rx="10" fill="white" stroke="#e2e8f0" stroke-width="1"/>
  <rect x="402" y="278" width="174" height="3" rx="10" fill="#10b981"/>
  <text x="414" y="304" fill="#0f172a" font-size="12" font-weight="600">SEO-продвижение</text>
  <text x="414" y="322" fill="#64748b" font-size="11">Рост трафика</text>
  <text x="414" y="338" fill="#64748b" font-size="11">и позиций в поиске</text>
  <text x="414" y="368" fill="#10b981" font-size="11" font-weight="500">Подробнее →</text>
  <rect x="590" y="278" width="174" height="100" rx="10" fill="white" stroke="#e2e8f0" stroke-width="1"/>
  <rect x="590" y="278" width="174" height="3" rx="10" fill="#f59e0b"/>
  <text x="602" y="304" fill="#0f172a" font-size="12" font-weight="600">Дизайн</text>
  <text x="602" y="322" fill="#64748b" font-size="11">UI/UX и айдентика</text>
  <text x="602" y="338" fill="#64748b" font-size="11">для вашего бренда</text>
  <text x="602" y="368" fill="#f59e0b" font-size="11" font-weight="500">Подробнее →</text>
  <!-- Blog posts -->
  <text x="230" y="408" fill="#0f172a" font-size="13" font-weight="600">Последние статьи</text>
  <rect x="216" y="418" width="568" height="36" rx="8" fill="#f8fafc"/>
  <text x="232" y="441" fill="#0f172a" font-size="12">Как увеличить конверсию лендинга на 40%</text>
  <text x="730" y="441" text-anchor="end" fill="#94a3b8" font-size="11">15 окт</text>
  <rect x="216" y="456" width="568" height="36" rx="8" fill="#f8fafc"/>
  <text x="232" y="479" fill="#0f172a" font-size="12">Next.js 14: что нового и зачем переходить</text>
  <text x="730" y="479" text-anchor="end" fill="#94a3b8" font-size="11">10 окт</text>
</svg>
