<svg viewBox="0 0 800 500" xmlns="http://www.w3.org/2000/svg" font-family="system-ui,-apple-system,sans-serif">
  <defs>
    <linearGradient id="bg3" x1="0" y1="0" x2="800" y2="500" gradientUnits="userSpaceOnUse">
      <stop offset="0%" stop-color="#0d0621"/>
      <stop offset="100%" stop-color="#1a0d36"/>
    </linearGradient>
    <radialGradient id="glow3" cx="40%" cy="40%" r="55%">
      <stop offset="0%" stop-color="rgba(139,92,246,0.35)"/>
      <stop offset="100%" stop-color="transparent"/>
    </radialGradient>
  </defs>
  <!-- Browser chrome -->
  <rect width="800" height="500" fill="#1e1e2e"/>
  <rect width="800" height="36" fill="#2a2a3e"/>
  <circle cx="20" cy="18" r="6" fill="#ff5f57"/>
  <circle cx="40" cy="18" r="6" fill="#febc2e"/>
  <circle cx="60" cy="18" r="6" fill="#28c840"/>
  <rect x="90" y="8" width="540" height="20" rx="10" fill="#1a1a2e"/>
  <text x="360" y="22" text-anchor="middle" fill="#8b8baa" font-size="11">alex-dev.me</text>
  <!-- Page bg -->
  <rect x="0" y="36" width="800" height="464" fill="url(#bg3)"/>
  <rect x="0" y="36" width="800" height="464" fill="url(#glow3)"/>
  <!-- Nav -->
  <text x="50" y="76" fill="white" font-size="15" font-weight="700">Alex</text>
  <rect x="52" y="79" width="30" height="2" rx="1" fill="#8b5cf6"/>
  <text x="400" y="76" text-anchor="middle" fill="#c4b5fd" font-size="12">Проекты</text>
  <text x="500" y="76" text-anchor="middle" fill="#c4b5fd" font-size="12">Навыки</text>
  <text x="600" y="76" text-anchor="middle" fill="#c4b5fd" font-size="12">Контакт</text>
  <rect x="680" y="60" width="90" height="28" rx="14" fill="rgba(139,92,246,0.2)" stroke="#8b5cf6" stroke-width="1"/>
  <text x="725" y="79" text-anchor="middle" fill="#c4b5fd" font-size="12">Резюме ↓</text>
  <!-- Avatar and headline -->
  <circle cx="140" cy="240" r="70" fill="rgba(139,92,246,0.15)" stroke="#8b5cf6" stroke-width="2"/>
  <circle cx="140" cy="240" r="58" fill="#1e1040"/>
  <text x="140" y="248" text-anchor="middle" fill="#c4b5fd" font-size="32" font-weight="700">A</text>
  <!-- Online badge -->
  <circle cx="194" cy="194" r="10" fill="#0f172a" stroke="#0f172a" stroke-width="2"/>
  <circle cx="194" cy="194" r="7" fill="#4ade80"/>
  <!-- Right content -->
  <text x="260" y="178" fill="#8b5cf6" font-size="12" font-weight="600" letter-spacing="2">FULL-STACK DEVELOPER</text>
  <text x="260" y="218" fill="white" font-size="32" font-weight="800">Alex Petrov</text>
  <text x="260" y="254" fill="#c4b5fd" font-size="15">Создаю красивые и быстрые</text>
  <text x="260" y="274" fill="#c4b5fd" font-size="15">веб-приложения</text>
  <!-- Tags -->
  <rect x="260" y="290" width="82" height="26" rx="13" fill="rgba(139,92,246,0.2)" stroke="rgba(139,92,246,0.5)" stroke-width="1"/>
  <text x="301" y="308" text-anchor="middle" fill="#c4b5fd" font-size="11">React</text>
  <rect x="354" y="290" width="82" height="26" rx="13" fill="rgba(139,92,246,0.2)" stroke="rgba(139,92,246,0.5)" stroke-width="1"/>
  <text x="395" y="308" text-anchor="middle" fill="#c4b5fd" font-size="11">Node.js</text>
  <rect x="448" y="290" width="82" height="26" rx="13" fill="rgba(139,92,246,0.2)" stroke="rgba(139,92,246,0.5)" stroke-width="1"/>
  <text x="489" y="308" text-anchor="middle" fill="#c4b5fd" font-size="11">TypeScript</text>
  <rect x="542" y="290" width="82" height="26" rx="13" fill="rgba(139,92,246,0.2)" stroke="rgba(139,92,246,0.5)" stroke-width="1"/>
  <text x="583" y="308" text-anchor="middle" fill="#c4b5fd" font-size="11">PostgreSQL</text>
  <!-- Buttons -->
  <rect x="260" y="330" width="150" height="44" rx="22" fill="#8b5cf6"/>
  <text x="335" y="358" text-anchor="middle" fill="white" font-size="14" font-weight="600">Мои работы</text>
  <rect x="424" y="330" width="150" height="44" rx="22" fill="transparent" stroke="rgba(139,92,246,0.6)" stroke-width="1.5"/>
  <text x="499" y="358" text-anchor="middle" fill="#c4b5fd" font-size="14">Написать →</text>
  <!-- Social links -->
  <text x="260" y="410" fill="#6b5aa0" font-size="12">github.com/alex-dev</text>
  <text x="260" y="430" fill="#6b5aa0" font-size="12">t.me/alex_dev</text>
  <!-- Scroll indicator -->
  <rect x="392" y="452" width="16" height="28" rx="8" fill="transparent" stroke="rgba(139,92,246,0.4)" stroke-width="1.5"/>
  <rect x="399" y="457" width="2" height="8" rx="1" fill="#8b5cf6"/>
</svg>
